Coordinates
version=1
nRows=10
nColumns=40
inDegrees=yes

Units are S.I. units (second, meters, Newtons, ...)
If the header above contains a line with 'inDegrees', this indicates whether rotational values are in degrees (yes) or radians (no).

endheader
time	pelvis_tilt	pelvis_list	pelvis_rotation	pelvis_tx	pelvis_ty	pelvis_tz	hip_flexion_r	hip_adduction_r	hip_rotation_r	knee_angle_r	knee_angle_r_beta	ankle_angle_r	subtalar_angle_r	mtp_angle_r	hip_flexion_l	hip_adduction_l	hip_rotation_l	knee_angle_l	knee_angle_l_beta	ankle_angle_l	subtalar_angle_l	mtp_angle_l	lumbar_extension	lumbar_bending	lumbar_rotation	arm_flex_r	arm_add_r	arm_rot_r	elbow_flex_r	pro_sup_r	wrist_flex_r	wrist_dev_r	arm_flex_l	arm_add_l	arm_rot_l	elbow_flex_l	pro_sup_l	wrist_flex_l	wrist_dev_l
      3.50000000	    -30.91612368	     -2.14689391	     -0.57953560	     -0.32929772	      0.71752253	     -0.98785537	     31.94549172	     -5.15959633	     10.19568011	     93.16334176	      1.62600706	    -19.06924862	      0.00000000	      0.00000000	     83.61808612	     -4.13030282	     -4.78553831	     89.09876713	      1.55506685	     22.04834601	      0.00000000	      0.00000000	    -16.05950774	     -9.60060057	      6.67065944	     75.08355328	     -7.62716404	     20.59360363	     83.64006667	     81.15042874	      0.00000000	      0.00000000	     80.79837189	    -11.35511185	     31.75517408	     78.00088991	     79.59183024	      0.00000000	      0.00000000
      3.50500000	    -30.96799730	     -2.18916830	     -0.59811733	     -0.32924744	      0.71734316	     -0.98774024	     31.93263793	     -5.13968958	     10.20116130	     93.13541109	      1.62551957	    -19.07509207	      0.00000000	      0.00000000	     83.70389618	     -4.18212726	     -4.77256306	     89.14557339	      1.55588377	     22.10032455	      0.00000000	      0.00000000	    -16.02558694	     -9.58447616	      6.68151170	     75.10506369	     -7.59034104	     20.62894595	     83.53897594	     80.99597590	      0.00000000	      0.00000000	     80.79678125	    -11.39192678	     31.78830300	     78.04511122	     79.45723320	      0.00000000	      0.00000000
      3.51000000	    -30.96897522	     -2.21001930	     -0.55902544	     -0.32915642	      0.71724929	     -0.98775198	     31.85795615	     -5.18498228	     10.18214483	     93.10805633	      1.62504214	    -18.97270944	      0.00000000	      0.00000000	     83.71895254	     -4.16459293	     -4.75916793	     89.17274735	      1.55635804	     22.06212007	      0.00000000	      0.00000000	    -16.04615689	     -9.57837161	      6.62868738	     75.15940293	     -7.61097568	     20.78792590	     83.51854232	     78.60091978	      0.00000000	      0.00000000	     80.81461829	    -11.45125912	     32.03158072	     78.11030372	     77.00972185	      0.00000000	      0.00000000
      3.51500000	    -31.02023530	     -2.21505366	     -0.57400266	     -0.32909179	      0.71708817	     -0.98759094	     31.84964899	     -5.20158049	     10.20224793	     93.12545534	      1.62534581	    -18.77262044	      0.00000000	      0.00000000	     83.79506742	     -4.23942871	     -4.79190400	     89.21473666	      1.55709090	     21.88121316	      0.00000000	      0.00000000	    -16.02089746	     -9.59585548	      6.60114501	     75.18023994	     -7.56359254	     21.00341632	     83.52703826	     75.96399608	      0.00000000	      0.00000000	     80.83476346	    -11.57404364	     32.27028297	     78.27296449	     74.57063233	      0.00000000	      0.00000000
      3.52000000	    -31.01694341	     -2.23346116	     -0.53420546	     -0.32899035	      0.71702901	     -0.98762718	     31.80382174	     -5.26554578	     10.13940723	     93.11107966	      1.62509491	    -19.03780882	      0.00000000	      0.00000000	     83.78747883	     -4.20827521	     -4.78903273	     89.21564657	      1.55710678	     22.05024425	      0.00000000	      0.00000000	    -16.04356972	     -9.59904143	      6.62494146	     75.08702536	     -7.58251067	     20.60425437	     83.52524782	     81.06883717	      0.00000000	      0.00000000	     80.81528679	    -11.38621470	     31.62562549	     78.01204595	     79.62882600	      0.00000000	      0.00000000
      3.52500000	    -31.04529897	     -2.21733785	     -0.53501337	     -0.32892369	      0.71692466	     -0.98747377	     31.79541074	     -5.29492606	     10.16705266	     93.09119714	      1.62474789	    -19.05028276	      0.00000000	      0.00000000	     83.80925881	     -4.22750489	     -4.80908412	     89.22174886	      1.55721328	     22.11031263	      0.00000000	      0.00000000	    -16.03550796	     -9.65461409	      6.63313192	     75.08667930	     -7.58492312	     20.59212647	     83.51828093	     81.18055872	      0.00000000	      0.00000000	     80.80566673	    -11.39643499	     31.78105759	     78.04534521	     79.34712017	      0.00000000	      0.00000000
      3.53000000	    -31.06299044	     -2.23282386	     -0.52768021	     -0.32892204	      0.71683052	     -0.98733974	     31.77275332	     -5.29409580	     10.19283739	     93.11233506	      1.62511682	    -19.00505656	      0.00000000	      0.00000000	     83.83697880	     -4.26500676	     -4.82440257	     89.23692708	      1.55747819	     22.11785654	      0.00000000	      0.00000000	    -16.04272854	     -9.67136534	      6.65201076	     75.08345852	     -7.63117314	     20.58235906	     83.52593002	     81.16824081	      0.00000000	      0.00000000	     80.84689960	    -11.35799918	     31.81358136	     77.97001347	     79.34306843	      0.00000000	      0.00000000
      3.53500000	    -31.02817332	     -2.25533919	     -0.39728455	     -0.32885733	      0.71678545	     -0.98759872	     31.63358204	     -5.40533028	     10.11601164	     93.07785090	      1.62451496	    -18.96448810	      0.00000000	      0.00000000	     83.83395258	     -4.13146116	     -4.75527271	     89.26570200	      1.55798041	     21.90842407	      0.00000000	      0.00000000	    -16.13076167	     -9.61864895	      6.48567933	     75.15398827	     -7.59942553	     20.78590055	     83.47500135	     78.96661060	      0.00000000	      0.00000000	     80.89419630	    -11.47709802	     32.05669429	     78.07185645	     77.36358285	      0.00000000	      0.00000000
      3.54000000	    -30.97493602	     -2.10690437	     -0.45321984	     -0.32861275	      0.71689185	     -0.98748863	     31.54757287	     -5.58032711	     10.24593415	     93.06897790	      1.62436010	    -19.05269023	      0.00000000	      0.00000000	     83.69870605	     -4.20017683	     -4.99392507	     89.23057079	      1.55736725	     22.10461688	      0.00000000	      0.00000000	    -16.20809396	     -9.82587085	      6.54286871	     75.07928558	     -7.62174562	     20.55233827	     83.54585601	     81.07614246	      0.00000000	      0.00000000	     80.87367263	    -11.41665042	     31.88749598	     78.03335109	     79.34227146	      0.00000000	      0.00000000
      3.54500000	    -30.99472391	     -2.15537913	     -0.40355670	     -0.32862114	      0.71685073	     -0.98744031	     31.47013263	     -5.57903546	     10.21091682	     93.01837321	      1.62347688	    -18.88746584	      0.00000000	      0.00000000	     83.72882791	     -4.21244396	     -4.98415626	     89.19626415	      1.55676849	     21.98920536	      0.00000000	      0.00000000	    -16.23561699	     -9.78592101	      6.51037628	     75.06490686	     -7.54846487	     20.40166414	     83.52408526	     80.76549890	      0.00000000	      0.00000000	     80.84393330	    -11.33223723	     31.63351353	     78.06825297	     79.05323323	      0.00000000	      0.00000000
